# xmcd
#
# Track frame offsets:
#	150
#	14533
#	28074
#	46445
#	61718
#	80313
#	92060
#	106431
#	117912
#	124174
#	139590
#
# Disc length: 2138 seconds
#
# Revision: 0
# Processed by: cddbd v1.5.2PL0 Copyright (c) Steve Scherf et al.
# Submitted via: dBpowerAMP V4.0
#
DISCID=8c08580b
DTITLE=Pilbilly Knights - California Nigth Club
DYEAR=2007
DGENRE=Country
TTITLE0=Sloppy 2nd St.
TTITLE1=Codependence Day
TTITLE2=D.U.I.
TTITLE3=Tippin Man
TTITLE4=Footwater
TTITLE5=Line Dance
TTITLE6=Ese Chai Tea
TTITLE7=Ben Lauden
TTITLE8=Kapital K
TTITLE9=Married Woman
TTITLE10=Anestasia
EXTD=www.pilbillyknights.com
EXTT0=
EXTT1=
EXTT2=
EXTT3=
EXTT4=
EXTT5=
EXTT6=
EXTT7=
EXTT8=
EXTT9=
EXTT10=
PLAYORDER=
